<?xml version="1.0" encoding="UTF-8"?>
<svg id="Warstwa_1" data-name="Warstwa 1" xmlns="http://www.w3.org/2000/svg" viewBox="0 0 1043.15 140.39">
  <defs>
    <style>
      .cls-1 {
        fill: #896f05;
      }
    </style>
  </defs>
  <path class="cls-1" d="M130.57,100.53c0,34.91-42.84,37.22-63.47,37.22H0v-2.39l15.76-2.89V8.01L0,5.03v-2.39h64.87c21.95,0,57.11,1.07,57.11,28.72,0,17.25-13.29,29.05-35.65,32.85,33.1,4.37,44.24,18.4,44.24,36.31ZM53.15,7.92v54.89c7.02-.17,13.45-.17,19.31.16,8.75-7.01,12.13-16.67,12.13-29.63,0-19.97-8.01-26.08-23.85-26.08-2.64,0-5.2.17-7.59.66ZM89.3,99.7c0-21.62-7.26-29.3-24.27-31.36-3.47-.49-7.18-.66-11.88-.66l.08,63.8c2.89.91,6.19,1.65,10.98,1.65,16.09,0,25.09-8.09,25.09-33.43Z"/>
  <path class="cls-1" d="M144.75,70.16C144.75,25.01,170.91,0,212.67,0s67.93,25.01,67.93,70.16-26.08,70.24-67.93,70.24-67.93-25.01-67.93-70.24ZM239.33,70.16c0-39.62-8.58-65.37-26.66-65.37s-26.66,25.75-26.66,65.37,8.58,65.45,26.66,65.45,26.66-25.75,26.66-65.45Z"/>
  <path class="cls-1" d="M342.9,7.92v124.54l13.87,2.89v2.39h-67.35v-2.39l14.94-2.89V7.92l-14.94-2.89v-2.39h67.35v2.39l-13.87,2.89ZM428.65,134.37v2.39c-22.04,6.93-44.32,3.71-56.78-12.88-12.13-16.43-20.55-34.58-26.74-55.22l46.22-59.09-18.41-4.54v-2.39h49.77v2.39l-14.28,4.71c-12.21,10.48-24.35,21.95-36.48,34.42,10.4,26.16,26.49,54.97,42.75,76.1,4.79,5.94,9.49,10.73,13.95,14.11Z"/>
  <path class="cls-1" d="M437.71,130.65c1.4-11.47,1.82-24.6,2.15-37.8h3.05c11.89,30.21,28.56,42.59,44.49,42.59,11.64,0,17.08-6.36,17.08-16.09,0-15.02-13.37-21.71-24.18-27.24l-11.64-6.11c-8.91-4.62-31.94-15.76-32.02-43.91,0-23.69,15.93-42.09,54.14-42.09,12.71,0,26.41,2.15,37.72,7.1.08,12.3.91,23.85,1.9,36.89l-2.72.41c-12.55-28.31-29.22-39.12-44.57-39.12-10.23,0-16.18,4.79-16.18,14.2,0,14.28,14.69,21.79,22.78,25.75l8.75,4.37c19.81,9.9,37.47,20.72,37.47,47.95s-18.24,42.83-52.57,42.83c-16.01,0-33.67-3.38-45.64-9.74Z"/>
  <path class="cls-1" d="M653.69,96.4h3.3l-1.07,41.35h-108.53v-2.39l14.94-2.89V7.92l-14.94-2.89v-2.39h106.88l.33,38.46-3.3.08-10.73-23.85c-9.57-5.7-21.62-8.83-39.12-9.57v57.86c11.55-.49,19.72-2.06,27.07-5.94l6.85-16.26h2.64v49.19h-2.64l-6.85-16.42c-7.35-3.8-15.52-5.36-27.07-5.94v62.48c19.39-.66,32.1-4.62,41.35-10.65l10.89-25.67Z"/>
  <path class="cls-1" d="M805.63,135.77l-.49,2.81c-29.63,3.47-45.31-2.64-54.55-19.48-6.69-12.46-11.97-26.25-16.18-42.01-3.63.58-7.43,1.07-11.47,1.48v53.81l13.78,2.97v2.39h-66.85v-2.39l15.52-2.97V7.92l-15.52-2.89v-2.39h73.29c28.06,0,49.52,6.93,49.52,32.77,0,14.2-6.85,25.09-23.85,32.68,6.36,21.62,15.1,42.67,25.5,55.79,3.88,5.45,7.92,9.24,11.31,11.88ZM722.93,69.91c4.37.58,8.75.74,13.21.41,12.38-4.95,17.83-14.03,17.83-33.67s-7.43-28.72-21.71-28.72c-3.22,0-6.44.16-9.33.82v61.16Z"/>
  <path class="cls-1" d="M885.92,8.76h24.2v1.35l-6.54,2.07-16.5,59.57c-5.44.87-11.07.82-16.6,0l-8.57-24.11c-2.07-5.82-3.99-11.69-5.73-18.53-1.49,7.02-2.89,12.61-4.38,18.43l-6.54,24.2c-5.58.82-11.65.87-16.99,0l-17.56-59.86-6.11-1.78v-1.35h39.07v1.35l-11.02,1.78,7.56,26.42c1.88,6.64,3.42,12.32,4.72,18.04,1.3-6.06,2.6-11.69,4.09-17.9l6.78-26.51c5-1.49,12.13-1.54,17.13.05l8.61,26.32c1.73,5.44,3.42,10.83,5.44,18.19,1.68-7.12,2.84-11.4,4.33-18.24,2.31-10.25,3.8-16.41,5.49-26.08l-10.87-2.07v-1.35Z"/>
  <path class="cls-1" d="M967.9,51.78h1.3l-.48,20.02h-55v-1.4l7.56-1.64V11.79l-7.56-1.68v-1.35h54.28l.19,18.48h-1.25l-5.39-10.06c-4.76-3.46-11.69-5.63-19.44-5.82v26.75c5.29-.29,9.09-1.11,12.61-2.84l3.75-7.6h1.2v23.34h-1.2l-3.75-7.65c-3.71-1.83-7.51-2.6-12.61-2.89v28.73c8.47-.48,15.5-2.65,20.84-6.16l4.96-11.26Z"/>
  <path class="cls-1" d="M1043.15,54.62c0,15.11-21.89,17.18-31.76,17.18h-34.02v-1.4l7.12-1.64V11.79l-7.12-1.68v-1.35h34.17c10.01,0,27.72.67,27.72,13.19,0,8.42-7.36,13.81-19.44,15.25,17.37,1.88,23.34,8.28,23.34,17.42ZM1005.04,11.65v25.02c2.98-.05,5.77,0,8.37.1,3.27-2.93,5.77-7.89,5.77-13.95,0-8.37-3.9-10.87-10.2-11.26-1.3-.1-2.79-.05-3.95.1ZM1020.92,53.66c0-10.06-3.42-14.1-15.88-14.05l.05,29.02c1.49.48,2.89.67,4.43.67,7.07,0,11.4-3.9,11.4-15.64Z"/>
</svg>